<svg width="507" height="73" viewBox="0 0 507 73" fill="none" xmlns="http://www.w3.org/2000/svg">
<path d="M137.707 57.8416C148.11 57.8416 156.499 51.9213 159.417 42.4531H145.203C143.831 44.8804 141.044 46.344 137.707 46.344C133.195 46.344 130.175 43.884 129.245 39.1244H160.03C160.216 37.8396 160.325 36.5913 160.325 35.3393C160.325 23.1666 151.071 13.6218 137.707 13.6218C124.693 13.6218 115.184 22.9804 115.184 35.7007C115.184 48.3771 124.769 57.8416 137.707 57.8416V57.8416ZM146.257 31.2075H129.493C130.649 27.0867 133.542 24.8237 137.707 24.8237C142.015 24.8237 145.002 27.0611 146.257 31.2111V31.2075ZM186.182 57.8379C190.997 57.8379 195.301 56.2538 198.693 53.5017L199.918 56.4363H210.959V14.9395H200.312L198.853 18.1515C195.425 15.3227 191.066 13.6912 186.182 13.6912C173.503 13.6912 164.439 22.8344 164.439 35.6861C164.439 48.5815 173.503 57.8416 186.182 57.8416V57.8379ZM188.093 45.1834C182.743 45.1834 178.811 41.1392 178.811 35.7189C178.811 30.3352 182.71 26.291 188.093 26.291C193.441 26.291 197.373 30.3352 197.373 35.7189C197.373 41.1392 193.441 45.1834 188.093 45.1834ZM235.959 57.8379C246.975 57.8379 254.288 52.1658 254.288 43.4934C254.288 32.9705 245.581 31.609 239.03 30.4446C235.091 29.7402 231.918 29.1891 231.918 26.8312C231.918 24.9076 233.457 23.7725 235.748 23.7725C238.337 23.7725 240.114 25.0025 240.114 27.6524H253.489C253.329 19.2465 246.486 13.6255 235.923 13.6255C225.301 13.6255 218.218 18.9909 218.218 27.3129C218.218 37.376 226.742 39.3178 233.173 40.3581C237.156 41.0187 240.292 41.7013 240.292 44.0957C240.292 46.2382 238.312 47.3077 236.222 47.3077C233.515 47.3077 231.407 45.9097 231.407 42.8766H217.656C217.788 51.8665 224.656 57.8416 235.959 57.8416V57.8379ZM265.504 71.9196C276.213 71.9196 281.349 67.3316 286.94 54.6332L304.317 14.9833H288.975L280.772 37.8432L271.975 14.9833H256.454L273.59 53.0528C271.657 58.2139 270.005 59.6374 264.545 59.6374H260.613V71.9196H265.504ZM332.997 57.8379C345.763 57.8379 354.783 48.6582 354.783 35.7627C354.783 22.8673 345.767 13.6875 332.997 13.6875C329.362 13.6591 325.793 14.6505 322.693 16.5491V0H308.577V56.4801H319.144L320.493 53.3995C323.86 56.2137 328.16 57.8379 332.997 57.8379ZM331.089 45.1834C325.738 45.1834 321.806 41.1392 321.806 35.7664C321.806 30.3425 325.738 26.2983 331.089 26.2983C336.436 26.2983 340.368 30.3425 340.368 35.7627C340.368 41.1392 336.404 45.1797 331.089 45.1797V45.1834ZM380.688 57.8379C385.502 57.8379 389.806 56.2538 393.199 53.5017L394.424 56.4363H405.465V14.9395H394.822L393.359 18.1515C389.934 15.3227 385.572 13.6912 380.688 13.6912C368.009 13.6912 358.949 22.8344 358.949 35.6861C358.949 48.5815 368.009 57.8416 380.688 57.8416V57.8379ZM382.599 45.1834C377.248 45.1834 373.316 41.1392 373.316 35.7189C373.316 30.3352 377.219 26.291 382.599 26.291C387.95 26.291 391.882 30.3352 391.882 35.7189C391.882 41.1392 387.95 45.1834 382.599 45.1834ZM428.751 56.4801V34.321C428.751 29.0394 431.311 25.926 435.765 25.926C439.361 25.926 441.174 28.324 441.174 33.153V56.4764H455.454V31.182C455.454 20.6079 449.133 13.7605 439.503 13.7605C434.142 13.7605 429.535 15.8227 426.445 19.2647L424.487 14.9869H414.467V56.4838H428.751V56.4801ZM478.896 56.4801V38.9309L489.284 56.4801H506.121L491.888 34.7626L504.811 14.9833H488.774L478.896 31.2404V0H464.613V56.4801H478.896V56.4801Z" fill="white"/>
<path fill-rule="evenodd" clip-rule="evenodd" d="M39.4001 0L0 71.9196H21.8338L61.2376 0H39.4001Z" fill="url(#paint0_linear_7_2)"/>
<path opacity="0.5" fill-rule="evenodd" clip-rule="evenodd" d="M66.2784 0L26.8746 71.9196H48.7085L88.1122 0H66.2784Z" fill="url(#paint1_linear_7_2)"/>
<path opacity="0.15" fill-rule="evenodd" clip-rule="evenodd" d="M93.153 0L53.7529 71.9196H75.5868L114.987 0H93.153Z" fill="url(#paint2_linear_7_2)"/>
<defs>
<linearGradient id="paint0_linear_7_2" x1="44.2105" y1="-2.60599e-06" x2="1.72527" y2="66.1431" gradientUnits="userSpaceOnUse">
<stop stop-color="#33D35E"/>
<stop offset="1" stop-color="#2AB6D9"/>
</linearGradient>
<linearGradient id="paint1_linear_7_2" x1="71.0851" y1="-2.60599e-06" x2="28.5999" y2="66.1431" gradientUnits="userSpaceOnUse">
<stop stop-color="#33D35E"/>
<stop offset="1" stop-color="#2AB6D9"/>
</linearGradient>
<linearGradient id="paint2_linear_7_2" x1="97.9608" y1="-2.60599e-06" x2="55.4745" y2="66.1408" gradientUnits="userSpaceOnUse">
<stop stop-color="#33D35E"/>
<stop offset="1" stop-color="#2AB6D9"/>
</linearGradient>
</defs>
</svg>
